<svg width="124" height="125" viewBox="0 0 124 125" fill="none" xmlns="http://www.w3.org/2000/svg">
    <path
        d="M-6.10352e-05 62.5001C-6.10352e-05 28.2584 27.7583 0.5 62 0.5C96.2417 0.5 124 28.2584 124 62.5001V124.5H-6.10352e-05V62.5001Z"
        fill="#F3AFA8" />
    <path
        d="M32.1685 98.5559L38.7667 98.5559L38.7667 91.7278L32.1685 91.7278L32.1685 98.5559ZM87.1018 42.5453C87.1018 42.0834 86.74 41.709 86.2937 41.709L79.0207 41.709C78.5743 41.709 78.2125 42.0834 78.2125 42.5453C78.2125 43.0071 78.5743 43.3815 79.0207 43.3815L85.4856 43.3815L85.4856 50.0717C85.4856 50.5335 85.8474 50.9079 86.2937 50.9079C86.74 50.9079 87.1018 50.5335 87.1018 50.0717L87.1018 42.5453ZM36.039 95.7332L86.8651 43.1366L85.7223 41.9539L34.8962 94.5505L36.039 95.7332Z"
        fill="#2D2D2D" />
</svg>
    