<svg width="40" height="26" viewBox="0 0 40 26" fill="none" xmlns="http://www.w3.org/2000/svg">
    <path
        d="M11.5669 0.499695C12.7397 0.499695 13.8 0.597222 14.7715 0.81228C15.7293 1.02734 16.5558 1.35993 17.246 1.82881C17.9299 2.29769 18.4638 2.91035 18.8477 3.69807C19.219 4.47953 19.4141 5.4498 19.4141 6.58261C19.4141 7.81295 19.1277 8.84948 18.5676 9.68221C18.0012 10.5162 17.1734 11.1801 16.0606 11.714C17.5711 12.1504 18.6914 12.9118 19.4341 13.9996C20.183 15.0999 20.5406 16.4153 20.5406 17.9332C20.5406 19.1836 20.3256 20.2513 19.8567 21.1503C19.3941 22.0681 18.7426 22.8171 17.9224 23.4035C17.1209 23.9836 16.1707 24.4 15.1416 24.6801C14.1251 24.9539 13.0511 25.1039 11.957 25.1039H0V0.513448H11.5657L11.5669 0.499695ZM28.2452 20.7727C28.9742 21.4892 30.0295 21.8468 31.4036 21.8468C32.3864 21.8468 33.2341 21.5992 33.9493 21.0978C34.6595 20.6164 35.0821 20.0813 35.2521 19.5349H39.5633C38.8931 21.6642 37.8178 23.2009 36.3987 24.1199C34.9796 25.0514 33.2603 25.5003 31.2673 25.5003C29.8669 25.5003 28.6228 25.2852 27.4775 24.8364C26.3572 24.3875 25.407 23.7486 24.6117 22.9346C23.8365 22.1206 23.2376 21.1366 22.8137 19.985C22.3899 18.8335 22.1886 17.5694 22.1886 16.2015C22.1886 14.8599 22.4161 13.6358 22.8663 12.483C23.3151 11.3177 23.934 10.3474 24.7293 9.50091C25.5557 8.64818 26.501 8.00925 27.6276 7.50786C28.7479 7.00647 29.9594 6.78516 31.3261 6.78516C32.844 6.78516 34.1456 7.05899 35.2922 7.6579C36.4125 8.22431 37.3302 9.02578 38.0604 9.98979C38.7969 10.9663 39.3108 12.0929 39.6296 13.3632C39.9484 14.6136 40.046 15.9289 39.9809 17.3293H27.1587C27.1587 18.7297 27.6276 20.0513 28.344 20.7677L28.2077 20.8203L28.2452 20.7727ZM11.1693 20.8565C11.697 20.8565 12.2046 20.804 12.6797 20.7002C13.1611 20.6027 13.5912 20.4264 13.9501 20.1988C14.3014 19.9775 14.6015 19.6512 14.8228 19.2286C15.0379 18.831 15.1354 18.2783 15.1354 17.6269C15.1354 16.3765 14.7703 15.4775 14.0676 14.9311C13.3512 14.3972 12.4196 14.1297 11.2543 14.1297H5.40023V20.8828H11.1706V20.8303L11.1693 20.8565ZM33.858 11.4402C33.2654 10.795 32.2888 10.4499 31.0898 10.4499C30.3145 10.4499 29.6706 10.5737 29.1492 10.8475C28.6478 11.0951 28.2315 11.4339 27.9114 11.8303C27.5988 12.2279 27.3837 12.6318 27.26 13.0806C27.1362 13.517 27.0587 13.9146 27.0386 14.266H34.9771C34.8595 13.0156 34.4232 12.0979 33.8443 11.4464V11.4664L33.858 11.4402ZM10.8705 10.4112C11.8282 10.4112 12.6222 10.1898 13.2474 9.72722C13.8725 9.27835 14.1726 8.52189 14.1726 7.49411C14.1726 6.92145 14.0551 6.45257 13.8725 6.08747C13.6512 5.71612 13.3712 5.43605 13.0386 5.23474C12.6872 5.02593 12.2834 4.88339 11.8332 4.80462C11.3844 4.71335 10.9017 4.68084 10.4329 4.68084H5.38647V10.4112H10.8705ZM26.0371 2.14765H35.9873V4.56956H26.0371V2.12764V2.14765Z"
        fill="#1B181A" />
</svg>
    