<svg width="40" height="41" viewBox="0 0 40 41" fill="none" xmlns="http://www.w3.org/2000/svg">
<g clip-path="url(#clip0_210_541)">
<path d="M10.5251 10.3887C10.1084 9.32538 10.1251 8.11038 10.3101 6.99872C11.5837 7.38034 12.7799 7.98407 13.8434 8.78205C14.3101 9.13871 14.9217 9.25372 15.4917 9.08205C16.9543 8.64444 18.4734 8.42431 20.0001 8.42871C21.6017 8.42871 23.1234 8.66205 24.5051 9.08038C25.0751 9.25371 25.6867 9.13705 26.1517 8.78038C27.2147 7.98258 28.4103 7.37885 29.6834 6.99705C29.8684 8.10871 29.8834 9.32371 29.4701 10.3854C29.2201 11.0254 29.3451 11.762 29.8167 12.2854C31.0234 13.6237 31.6667 15.162 31.6667 16.762C31.6667 20.2854 28.3834 23.7404 23.1101 24.792C21.7901 25.0554 21.2751 26.717 22.2851 27.6687C22.9334 28.2787 23.3334 29.1387 23.3334 30.0954V35.0954C23.3334 35.5374 23.509 35.9613 23.8215 36.2739C24.1341 36.5865 24.558 36.762 25.0001 36.762C25.4421 36.762 25.866 36.5865 26.1786 36.2739C26.4911 35.9613 26.6667 35.5374 26.6667 35.0954V30.0954C26.6667 29.1454 26.4667 28.242 26.1101 27.4237C31.1384 25.6787 35.0001 21.7504 35.0001 16.762C35.0001 14.517 34.1934 12.4537 32.8551 10.7254C33.2051 9.35872 33.1734 7.98205 33.0401 6.92538C32.9217 5.97871 32.7567 4.73871 32.0901 3.99871C31.0984 2.90038 29.4567 3.54705 28.2901 3.94538C27.0385 4.36886 25.8479 4.9544 24.7484 5.68705C23.1968 5.29107 21.6014 5.09228 20.0001 5.09538C18.3434 5.09538 16.7451 5.30371 15.2484 5.68871C14.1489 4.95605 12.9582 4.37051 11.7067 3.94705C10.5401 3.54705 8.89672 2.90038 7.90506 3.99871C7.22506 4.75205 7.08339 5.89371 6.96172 6.86371L6.95339 6.92705C6.82006 7.98538 6.79006 9.36372 7.14006 10.732C5.80672 12.4587 5.00006 14.5187 5.00006 16.762C5.00006 21.7487 8.86172 25.6787 13.8901 27.4237C13.5261 28.2559 13.3366 29.1538 13.3334 30.062L13.0534 30.1187C11.8584 30.2837 11.0934 30.1354 10.5734 29.9154C9.30672 29.3787 8.65339 28.027 7.85672 26.9937C7.36006 26.352 6.63672 25.5504 5.52672 25.1804C5.31902 25.1112 5.09972 25.0836 4.88136 25.0992C4.66299 25.1148 4.44984 25.1733 4.25406 25.2712C3.85867 25.4691 3.55807 25.8159 3.41839 26.2354C3.27871 26.6549 3.31139 27.1127 3.50924 27.508C3.70709 27.9034 4.05391 28.204 4.47339 28.3437C5.40339 28.6537 6.04672 30.247 6.63672 30.9537C7.25839 31.7004 8.08506 32.4804 9.27006 32.9837C10.4067 33.467 11.7417 33.6387 13.3334 33.4437V35.0954C13.3334 35.5374 13.509 35.9613 13.8215 36.2739C14.1341 36.5865 14.558 36.762 15.0001 36.762C15.4421 36.762 15.866 36.5865 16.1786 36.2739C16.4911 35.9613 16.6667 35.5374 16.6667 35.0954V30.0954C16.6667 29.1387 17.0667 28.2787 17.7151 27.6687C18.7267 26.7154 18.2101 25.0554 16.8901 24.792C11.6151 23.7404 8.33339 20.2854 8.33339 16.762C8.33339 15.1654 8.97506 13.627 10.1801 12.2887C10.6517 11.7654 10.7751 11.0287 10.5251 10.3887Z" fill="#1B181A"/>
</g>
<defs>
<clipPath id="clip0_210_541">
<rect width="40" height="40" fill="white" transform="translate(0 0.0953979)"/>
</clipPath>
</defs>
</svg>
