<svg width="40" height="41" viewBox="0 0 40 41" fill="none" xmlns="http://www.w3.org/2000/svg">
<path fill-rule="evenodd" clip-rule="evenodd" d="M11.7544 0.215398C13.8878 0.117616 14.5678 0.0953979 20 0.0953979C25.4333 0.0953979 26.1122 0.118725 28.2444 0.215398C30.3744 0.312071 31.8289 0.650962 33.1011 1.1454C34.4355 1.64778 35.6442 2.43493 36.6433 3.45207C37.6605 4.45103 38.4478 5.65987 38.95 6.99429C39.4444 8.26651 39.7822 9.72096 39.88 11.8498C39.9778 13.9832 40 14.6632 40 20.0954C40 25.5276 39.9767 26.2076 39.88 28.341C39.7833 30.4698 39.4444 31.9243 38.95 33.1965C38.4389 34.511 37.7544 35.6276 36.6433 36.7387C35.6444 37.7559 34.4355 38.5432 33.1011 39.0454C31.8289 39.5398 30.3744 39.8776 28.2456 39.9754C26.1122 40.0732 25.4322 40.0954 20 40.0954C14.5678 40.0954 13.8878 40.0721 11.7544 39.9754C9.62556 39.8787 8.17111 39.5398 6.89889 39.0454C5.58444 38.5343 4.46778 37.8498 3.35667 36.7387C2.33935 35.7398 1.55215 34.5309 1.05 33.1965C0.555564 31.9243 0.217782 30.4698 0.12 28.341C0.0222182 26.2076 0 25.5287 0 20.0954C0 14.6621 0.0233272 13.9832 0.12 11.851C0.216673 9.72096 0.555564 8.26651 1.05 6.99429C1.55238 5.65996 2.33953 4.45118 3.35667 3.45207C4.35562 2.43474 5.56446 1.64754 6.89889 1.1454C8.17111 0.650962 9.62556 0.31318 11.7544 0.215398ZM28.0822 3.8154C25.9733 3.71983 25.34 3.69873 20 3.69873C14.66 3.69873 14.0267 3.71983 11.9178 3.8154C9.96778 3.90429 8.90889 4.22983 8.20444 4.50429C7.27111 4.86651 6.60444 5.29983 5.90444 5.99983C5.20556 6.69983 4.77111 7.36651 4.40889 8.29984C4.13444 9.00429 3.80889 10.0632 3.72 12.0132C3.62444 14.1221 3.60333 14.7554 3.60333 20.0954C3.60333 25.4354 3.62444 26.0687 3.72 28.1776C3.80889 30.1276 4.13444 31.1865 4.40889 31.891C4.72929 32.7598 5.24035 33.5456 5.90444 34.191C6.54971 34.855 7.33566 35.3661 8.20444 35.6865C8.90889 35.961 9.96778 36.2865 11.9178 36.3754C14.0267 36.471 14.6589 36.4921 20 36.4921C25.3411 36.4921 25.9733 36.471 28.0822 36.3754C30.0322 36.2865 31.0911 35.961 31.7956 35.6865C32.7289 35.3243 33.3956 34.891 34.0956 34.191C34.7596 33.5458 35.2707 32.7598 35.5911 31.891C35.8656 31.1865 36.1911 30.1276 36.28 28.1776C36.3756 26.0687 36.3967 25.4354 36.3967 20.0954C36.3967 14.7554 36.3756 14.1221 36.28 12.0132C36.1911 10.0632 35.8656 9.00429 35.5911 8.29984C35.2289 7.36651 34.7956 6.69983 34.0956 5.99983C33.3956 5.30096 32.7289 4.86651 31.7956 4.50429C31.0911 4.22983 30.0322 3.90429 28.0822 3.8154ZM17.4464 26.2607C18.256 26.5961 19.1236 26.7687 20 26.7687C21.77 26.7687 23.4673 26.0656 24.7187 24.8141C25.9704 23.5627 26.6735 21.8652 26.6735 20.0954C26.6735 18.3256 25.9704 16.6281 24.7187 15.3766C23.4673 14.1251 21.77 13.4221 20 13.4221C19.1236 13.4221 18.256 13.5947 17.4464 13.93C16.6365 14.2654 15.901 14.7569 15.2813 15.3766C14.6616 15.9963 14.1701 16.7319 13.8347 17.5416C13.4993 18.3512 13.3267 19.219 13.3267 20.0954C13.3267 20.9718 13.4993 21.8396 13.8347 22.6492C14.1701 23.4589 14.6616 24.1945 15.2813 24.8141C15.901 25.4338 16.6365 25.9254 17.4464 26.2607ZM12.731 12.8263C14.6589 10.8985 17.2736 9.81538 20 9.81538C22.7265 9.81538 25.3413 10.8985 27.2691 12.8263C29.1969 14.7542 30.28 17.369 30.28 20.0954C30.28 22.8218 29.1969 25.4365 27.2691 27.3645C25.3413 29.2923 22.7265 30.3754 20 30.3754C17.2736 30.3754 14.6589 29.2923 12.731 27.3645C10.8031 25.4365 9.72006 22.8218 9.72006 20.0954C9.72006 17.369 10.8031 14.7542 12.731 12.8263ZM32.5595 11.347C33.0151 10.8913 33.2711 10.2732 33.2711 9.62873C33.2711 8.98423 33.0151 8.36616 32.5595 7.91045C32.1036 7.45474 31.4856 7.19873 30.8411 7.19873C30.1967 7.19873 29.5785 7.45474 29.1229 7.91045C28.6671 8.36616 28.4111 8.98423 28.4111 9.62873C28.4111 10.2732 28.6671 10.8913 29.1229 11.347C29.5785 11.8027 30.1967 12.0587 30.8411 12.0587C31.4856 12.0587 32.1036 11.8027 32.5595 11.347Z" fill="#1B181A"/>
</svg>
