<svg width="40" height="41" viewBox="0 0 40 41" fill="none" xmlns="http://www.w3.org/2000/svg">
<path d="M25.25 14.0954C23.9726 14.091 22.7068 14.3386 21.5252 14.8239C20.3436 15.3092 19.2692 16.0227 18.3636 16.9236C17.458 17.8246 16.739 18.8953 16.2476 20.0744C15.7562 21.2535 15.5022 22.518 15.5 23.7954V33.5954C15.5 33.9932 15.658 34.3748 15.9393 34.6561C16.2206 34.9374 16.6022 35.0954 17 35.0954H20.5C20.8978 35.0954 21.2794 34.9374 21.5607 34.6561C21.842 34.3748 22 33.9932 22 33.5954V23.7954C21.9997 23.3411 22.0951 22.8918 22.2801 22.4768C22.465 22.0618 22.7353 21.6905 23.0734 21.387C23.4115 21.0835 23.8098 20.8546 24.2423 20.7154C24.6747 20.5761 25.1317 20.5295 25.5833 20.5787C26.3933 20.6808 27.1377 21.0765 27.6754 21.6909C28.213 22.3053 28.5064 23.0957 28.5 23.9121V33.5954C28.5 33.9932 28.658 34.3748 28.9393 34.6561C29.2206 34.9374 29.6022 35.0954 30 35.0954H33.5C33.8978 35.0954 34.2794 34.9374 34.5607 34.6561C34.842 34.3748 35 33.9932 35 33.5954V23.7954C34.9978 22.518 34.7438 21.2535 34.2524 20.0744C33.761 18.8953 33.042 17.8246 32.1364 16.9236C31.2308 16.0227 30.1564 15.3092 28.9748 14.8239C27.7932 14.3386 26.5274 14.091 25.25 14.0954Z" fill="#1B181A"/>
<path d="M11 15.5954H6.5C5.67157 15.5954 5 16.267 5 17.0954V33.5954C5 34.4238 5.67157 35.0954 6.5 35.0954H11C11.8284 35.0954 12.5 34.4238 12.5 33.5954V17.0954C12.5 16.267 11.8284 15.5954 11 15.5954Z" fill="#1B181A"/>
<path d="M8.75 12.5954C10.8211 12.5954 12.5 10.9165 12.5 8.8454C12.5 6.77433 10.8211 5.0954 8.75 5.0954C6.67893 5.0954 5 6.77433 5 8.8454C5 10.9165 6.67893 12.5954 8.75 12.5954Z" fill="#1B181A"/>
</svg>
