<svg width="32" height="36" viewBox="0 0 32 36" fill="none" xmlns="http://www.w3.org/2000/svg">
    <path
        d="M26.4282 11.9946C29.5053 11.9946 32 9.5 32 6.42281C32 3.34563 29.5053 0.851074 26.4282 0.851074C23.351 0.851074 20.8565 3.34563 20.8565 6.42281C20.8565 9.5 23.351 11.9946 26.4282 11.9946Z"
        fill="#292D32" />
    <path
        d="M5.57173 11.9946C8.64891 11.9946 11.1435 9.5 11.1435 6.42281C11.1435 3.34563 8.64891 0.851074 5.57173 0.851074C2.49455 0.851074 0 3.34563 0 6.42281C0 9.5 2.49455 11.9946 5.57173 11.9946Z"
        fill="#292D32" />
    <path
        d="M26.4282 35.1488C29.5053 35.1488 32 32.6544 32 29.5771C32 26.4999 29.5053 24.0054 26.4282 24.0054C23.351 24.0054 20.8565 26.4999 20.8565 29.5771C20.8565 32.6544 23.351 35.1488 26.4282 35.1488Z"
        fill="#292D32" />
    <path
        d="M5.57173 35.1488C8.64891 35.1488 11.1435 32.6544 11.1435 29.5771C11.1435 26.4999 8.64891 24.0054 5.57173 24.0054C2.49455 24.0054 0 26.4999 0 29.5771C0 32.6544 2.49455 35.1488 5.57173 35.1488Z"
        fill="#292D32" />
</svg>
    