<svg width="40" height="40" viewBox="0 0 40 40" fill="none" xmlns="http://www.w3.org/2000/svg">
    <g clip-path="url(#clip0_210_576)">
        <path
            d="M32.8878 12.9515C32.4621 12.7876 32.0328 12.6356 31.6003 12.4959C31.673 12.1626 31.7398 11.8333 31.7992 11.5098C32.7739 6.19734 32.1367 1.91751 29.9603 0.50839C27.8736 -0.842487 24.461 0.56611 21.0144 3.934C20.6748 4.26652 20.3426 4.60862 20.0183 4.95997C19.8013 4.72633 19.5803 4.49723 19.3557 4.27278C15.7435 0.671724 12.1229 -0.845996 9.94886 0.567162C7.86402 1.92225 7.24668 5.94558 8.12418 10.9803C8.21148 11.479 8.31005 11.975 8.4198 12.468C7.9073 12.6315 7.41278 12.8056 6.9395 12.9908C2.70452 14.6487 0 17.2468 0 19.9417C0 22.7251 2.90342 25.5168 7.31434 27.2096C7.67194 27.3463 8.03252 27.4729 8.39574 27.5894C8.27778 28.1204 8.17305 28.655 8.08168 29.1926C7.24512 34.14 7.8984 38.0682 9.97761 39.4147C12.1251 40.8052 15.7295 39.3761 19.239 35.9314C19.5236 35.6513 19.8019 35.3633 20.0737 35.0677C20.4248 35.4481 20.7854 35.8175 21.1549 36.1754C24.5546 39.46 27.9121 40.7863 29.9892 39.4361C32.1347 38.0415 32.832 33.8216 31.9267 28.6873C31.8554 28.2851 31.7754 27.8849 31.6869 27.487C31.94 27.4028 32.1884 27.3161 32.4306 27.2259C37.0162 25.5201 39.9998 22.7622 39.9998 19.9417C39.9998 17.237 37.2079 14.6214 32.8878 12.9515ZM31.8933 25.4049C31.6745 25.4861 31.4502 25.5645 31.2214 25.6408C30.7152 23.8414 30.032 21.928 29.1959 19.951C29.9938 18.0212 30.6506 16.1322 31.1427 14.3445C31.5519 14.4775 31.9489 14.6177 32.3317 14.7656C36.0333 16.1965 38.2911 18.3117 38.2911 19.9417C38.2911 21.6779 35.8526 23.9317 31.8933 25.4049ZM30.2505 29.06C30.6508 31.3301 30.7078 33.3828 30.4427 34.9875C30.2045 36.4294 29.7255 37.3907 29.133 37.7758C27.8725 38.5951 25.1768 37.5301 22.2694 34.721C21.9257 34.3883 21.5903 34.0449 21.2636 33.6912C22.3908 32.3072 23.5172 30.6982 24.6166 28.9112C26.5503 28.7186 28.3772 28.4035 30.0339 27.9735C30.1137 28.3337 30.1859 28.6959 30.2505 29.06ZM13.6368 37.6342C12.4053 38.1224 11.4243 38.1365 10.8314 37.7526C9.56964 36.9356 9.04511 33.7814 9.76058 29.5505C9.84562 29.0505 9.94301 28.5533 10.0526 28.0594C11.691 28.4665 13.5046 28.7591 15.4429 28.9356C16.5498 30.6842 17.7087 32.2914 18.8766 33.6987C18.6284 33.9684 18.3743 34.2312 18.1146 34.4868C16.5626 36.01 15.0074 37.0907 13.6368 37.6342ZM7.86715 25.3942C5.91669 24.6456 4.30592 23.6728 3.20186 22.6112C2.20968 21.6573 1.7089 20.7101 1.7089 19.9417C1.7089 18.3063 3.88029 16.2203 7.50199 14.8026C7.94152 14.6307 8.40152 14.4684 8.87886 14.3161C9.37949 16.1442 10.036 18.0556 10.8284 19.9884C10.0257 21.9498 9.3598 23.8917 8.85433 25.7414C8.52279 25.6347 8.19363 25.519 7.86715 25.3942ZM9.8012 10.6117C9.04949 6.29821 9.5487 3.04436 10.8051 2.22769C12.1432 1.35786 15.1023 2.59804 18.2212 5.70751C18.4245 5.91074 18.6246 6.11808 18.8213 6.32944C17.6591 7.73067 16.5109 9.32593 15.4138 11.0642C13.5326 11.26 11.7318 11.5744 10.0762 11.9956C9.9742 11.537 9.8825 11.0755 9.8012 10.6117ZM27.0553 15.3958C26.6643 14.6373 26.2587 13.8884 25.8389 13.1496C27.1152 13.3308 28.338 13.5714 29.4863 13.8654C29.1416 15.1061 28.7119 16.4031 28.2061 17.733C27.8364 16.9454 27.4527 16.1661 27.0553 15.3958ZM20.0191 7.70085C20.8072 8.65962 21.5966 9.72997 22.373 10.8914C20.798 10.8079 19.2204 10.8075 17.6454 10.8903C18.4226 9.73962 19.2187 8.67067 20.0191 7.70085ZM12.9377 15.4087C12.5453 16.1729 12.1688 16.9473 11.8085 17.7312C11.311 16.4061 10.8853 15.1031 10.5376 13.8449C11.6788 13.5582 12.8959 13.3238 14.164 13.1459C13.7395 13.8893 13.3307 14.6439 12.9377 15.4087ZM14.2004 26.874C12.8902 26.7098 11.6549 26.4875 10.514 26.2086C10.8671 24.9279 11.3023 23.5972 11.8106 22.2437C12.1723 23.0281 12.5503 23.803 12.9445 24.5675C13.3498 25.3535 13.7695 26.1233 14.2004 26.874ZM20.0663 32.3179C19.2563 31.3368 18.4485 30.2514 17.6596 29.084C18.4255 29.1177 19.2063 29.1349 19.9999 29.1349C20.8152 29.1349 21.6211 29.1144 22.4144 29.0747C21.6355 30.2631 20.8491 31.3501 20.0663 32.3179ZM28.2222 22.1745C28.7569 23.543 29.2075 24.8666 29.5653 26.1254C28.4056 26.4226 27.1535 26.6619 25.8341 26.8396C26.2569 26.0871 26.6663 25.3252 27.0621 24.5544C27.4644 23.7708 27.8513 22.9774 28.2222 22.1745ZM25.5819 23.5958C24.976 24.7776 24.336 25.937 23.663 27.0721C22.4439 27.169 21.2221 27.2172 19.9999 27.2165C18.7551 27.2165 17.5443 27.173 16.3784 27.088C15.6878 25.9556 15.0356 24.7941 14.4232 23.6063C13.8137 22.4247 13.2446 21.2176 12.7167 19.9875C13.2432 18.7571 13.8108 17.5494 14.4182 16.367L14.4181 16.3672C15.0252 15.1844 15.6722 14.0279 16.3576 12.9003C17.5471 12.7993 18.7669 12.7466 19.9997 12.7466C21.2382 12.7466 22.4597 12.7998 23.6489 12.9015C24.3274 14.0275 24.9702 15.18 25.5763 16.3568C26.1857 17.5367 26.7608 18.7385 27.3006 19.9603C26.7664 21.1947 26.1931 22.4072 25.5819 23.5958ZM29.1069 2.1705C30.4463 3.03786 30.9672 6.53558 30.1256 11.1224C30.0719 11.4151 30.0116 11.7131 29.9459 12.0154C28.2863 11.5852 26.4842 11.2654 24.5975 11.0666C23.4985 9.30927 22.3596 7.71155 21.2163 6.32839C21.5159 6.00409 21.8227 5.68821 22.1363 5.38102C25.0894 2.49558 27.8494 1.35629 29.1069 2.1705ZM19.9999 15.9312C21.9725 15.9312 23.5718 17.7268 23.5718 19.9417C23.5718 22.1566 21.9725 23.9523 19.9999 23.9523C18.0273 23.9523 16.428 22.1566 16.428 19.9417C16.428 17.7268 18.0273 15.9312 19.9999 15.9312Z"
            fill="#00D8FF" />
    </g>
    <defs>
        <clipPath id="clip0_210_576">
            <rect width="40" height="40" fill="white" />
        </clipPath>
    </defs>
</svg>
    