<svg width="33" height="32" viewBox="0 0 33 32" fill="none" xmlns="http://www.w3.org/2000/svg">
    <g clip-path="url(#clip0_254_31)">
        <path fill-rule="evenodd" clip-rule="evenodd"
            d="M24.488 8.01337L7.69865 14.084L13.292 17.3214L18.224 12.388C18.4742 12.138 18.8134 11.9976 19.1671 11.9978C19.5208 11.9979 19.86 12.1385 20.11 12.3887C20.36 12.6389 20.5004 12.9781 20.5003 13.3318C20.5001 13.6855 20.3595 14.0247 20.1093 14.2747L15.176 19.208L18.416 24.8L24.488 8.01337ZM24.9187 5.02137C26.512 4.44404 28.056 5.98804 27.4787 7.58137L20.436 27.0547C19.8573 28.652 17.676 28.8467 16.824 27.376L12.5347 19.9654L5.12399 15.676C3.65332 14.824 3.84799 12.6427 5.44532 12.064L24.9187 5.02137Z"
            fill="#FCFCFC" />
    </g>
    <defs>
        <clipPath id="clip0_254_31">
            <rect width="32" height="32" fill="white" transform="translate(0.5)" />
        </clipPath>
    </defs>
</svg>
    