<svg width="40" height="41" viewBox="0 0 40 41" fill="none" xmlns="http://www.w3.org/2000/svg">
    <path fill-rule="evenodd" clip-rule="evenodd"
        d="M34.1719 5.84138C30.4115 2.07654 25.411 0.00221852 20.0843 0C9.10705 0 0.170827 8.934 0.166389 19.9157C0.166389 23.4254 1.08264 26.8508 2.82418 29.8724L0 40.1908L10.558 37.4199C13.4687 39.0061 16.7432 39.8425 20.0754 39.8447H20.0843C31.0593 39.8447 39.9956 30.9107 40 19.929C40 14.609 37.9323 9.60621 34.1719 5.84138ZM20.0843 36.4836H20.0776C17.107 36.4814 14.1941 35.685 11.6517 34.1742L11.0483 33.8148L4.78314 35.4587L6.45369 29.3511L6.06101 28.7255C4.40377 26.0898 3.52967 23.0438 3.52967 19.9157C3.53411 10.7887 10.9595 3.36328 20.091 3.36328C24.5125 3.3655 28.6678 5.0893 31.7937 8.21742C34.9174 11.3478 36.6389 15.5053 36.6367 19.929C36.6323 29.056 29.2069 36.4836 20.0843 36.4836ZM29.1647 24.0843C28.6656 23.8336 26.2207 22.6312 25.7637 22.4648C25.3089 22.2984 24.9784 22.2163 24.6456 22.7133C24.3128 23.2102 23.3588 24.3306 23.0682 24.6633C22.7776 24.9961 22.487 25.0361 21.99 24.7876C21.4931 24.5391 19.8891 24.0133 17.9878 22.3184C16.508 20.9983 15.5097 19.3699 15.2191 18.8708C14.9285 18.3716 15.188 18.1032 15.4387 17.8547C15.6628 17.6328 15.9357 17.2734 16.1841 16.9828C16.4326 16.6922 16.5147 16.4859 16.6811 16.1531C16.8475 15.8203 16.7654 15.5297 16.6389 15.2812C16.5147 15.0305 15.5186 12.5813 15.1037 11.5851C14.7022 10.6201 14.2917 10.7488 13.9856 10.7354C13.6972 10.7221 13.3644 10.7177 13.0338 10.7177C12.7011 10.7177 12.162 10.8419 11.7049 11.3389C11.2479 11.838 9.9634 13.0405 9.9634 15.4897C9.9634 17.939 11.7471 20.3062 11.9956 20.6389C12.244 20.9717 15.5053 25.9967 20.497 28.1531C21.6861 28.6656 22.6134 28.9717 23.3344 29.2024C24.5258 29.5818 25.6106 29.5263 26.4692 29.3999C27.4254 29.2579 29.4132 28.1974 29.8281 27.0349C30.2429 25.8724 30.2429 24.8763 30.1187 24.6678C29.9945 24.4592 29.6595 24.3328 29.1647 24.0843Z"
        fill="#1B181A" />
</svg>